<mxfile host="app.diagrams.net" modified="2023-04-08T17:41:51.937Z" agent="Mozilla/5.0 (Windows NT 10.0; Win64; x64) AppleWebKit/537.36 (KHTML, like Gecko) Chrome/112.0.0.0 Safari/537.36" etag="kkrRDCKRhe-hZT8vtOLt" version="21.1.5" type="device">
  <diagram name="Page-1" id="2YBvvXClWsGukQMizWep">
    <mxGraphModel dx="926" dy="476" grid="0" gridSize="10" guides="1" tooltips="1" connect="1" arrows="1" fold="1" page="1" pageScale="1" pageWidth="850" pageHeight="1100" math="0" shadow="0">
      <root>
        <mxCell id="0" />
        <mxCell id="1" parent="0" />
        <mxCell id="IgFrq9FfpR2oLdYjhYIg-1" value="Client&lt;br&gt;" style="shape=umlLifeline;participant=umlActor;perimeter=lifelinePerimeter;whiteSpace=wrap;html=1;container=1;collapsible=0;recursiveResize=0;verticalAlign=top;spacingTop=36;labelBackgroundColor=#ffffff;outlineConnect=0;" parent="1" vertex="1">
          <mxGeometry x="70" y="60" width="20" height="890" as="geometry" />
        </mxCell>
        <mxCell id="IgFrq9FfpR2oLdYjhYIg-9" value="" style="endArrow=block;endFill=1;endSize=6;html=1;" parent="IgFrq9FfpR2oLdYjhYIg-1" edge="1">
          <mxGeometry width="100" relative="1" as="geometry">
            <mxPoint x="10" y="100" as="sourcePoint" />
            <mxPoint x="261" y="100" as="targetPoint" />
          </mxGeometry>
        </mxCell>
        <mxCell id="IgFrq9FfpR2oLdYjhYIg-2" value="Login Page&lt;br&gt;" style="shape=umlLifeline;perimeter=lifelinePerimeter;whiteSpace=wrap;html=1;container=1;collapsible=0;recursiveResize=0;outlineConnect=0;" parent="1" vertex="1">
          <mxGeometry x="288" y="53" width="100" height="900" as="geometry" />
        </mxCell>
        <mxCell id="IgFrq9FfpR2oLdYjhYIg-4" value="" style="html=1;points=[];perimeter=orthogonalPerimeter;" parent="IgFrq9FfpR2oLdYjhYIg-2" vertex="1">
          <mxGeometry x="45" y="60" width="10" height="250" as="geometry" />
        </mxCell>
        <mxCell id="fi9knDPnngR9Sk_oVO4m-11" value="" style="endArrow=classic;html=1;rounded=0;exitX=1;exitY=0.54;exitDx=0;exitDy=0;exitPerimeter=0;" edge="1" parent="IgFrq9FfpR2oLdYjhYIg-2" source="IgFrq9FfpR2oLdYjhYIg-4" target="IgFrq9FfpR2oLdYjhYIg-2">
          <mxGeometry width="50" height="50" relative="1" as="geometry">
            <mxPoint x="60" y="195" as="sourcePoint" />
            <mxPoint x="60" y="242" as="targetPoint" />
            <Array as="points">
              <mxPoint x="103" y="195" />
              <mxPoint x="103" y="225" />
              <mxPoint x="80" y="225" />
            </Array>
          </mxGeometry>
        </mxCell>
        <mxCell id="IgFrq9FfpR2oLdYjhYIg-3" value="View Account Page" style="shape=umlLifeline;perimeter=lifelinePerimeter;whiteSpace=wrap;html=1;container=1;collapsible=0;recursiveResize=0;outlineConnect=0;" parent="1" vertex="1">
          <mxGeometry x="465" y="53" width="100" height="520" as="geometry" />
        </mxCell>
        <mxCell id="IgFrq9FfpR2oLdYjhYIg-19" value="" style="html=1;points=[];perimeter=orthogonalPerimeter;" parent="IgFrq9FfpR2oLdYjhYIg-3" vertex="1">
          <mxGeometry x="45" y="180" width="10" height="260" as="geometry" />
        </mxCell>
        <mxCell id="IgFrq9FfpR2oLdYjhYIg-10" value="Enter Email&lt;br&gt;" style="text;html=1;align=center;verticalAlign=middle;resizable=0;points=[];autosize=1;" parent="1" vertex="1">
          <mxGeometry x="160" y="132" width="80" height="20" as="geometry" />
        </mxCell>
        <mxCell id="IgFrq9FfpR2oLdYjhYIg-11" value="" style="endArrow=block;endFill=1;endSize=6;html=1;" parent="1" edge="1">
          <mxGeometry width="100" relative="1" as="geometry">
            <mxPoint x="80.25" y="200" as="sourcePoint" />
            <mxPoint x="334" y="200" as="targetPoint" />
          </mxGeometry>
        </mxCell>
        <mxCell id="IgFrq9FfpR2oLdYjhYIg-12" value="Enter password&lt;br&gt;&lt;br&gt;" style="text;html=1;align=center;verticalAlign=middle;resizable=0;points=[];autosize=1;" parent="1" vertex="1">
          <mxGeometry x="150" y="177" width="100" height="30" as="geometry" />
        </mxCell>
        <mxCell id="IgFrq9FfpR2oLdYjhYIg-13" value="" style="endArrow=block;endFill=1;endSize=6;html=1;" parent="1" edge="1">
          <mxGeometry width="100" relative="1" as="geometry">
            <mxPoint x="80.25" y="240" as="sourcePoint" />
            <mxPoint x="332" y="240" as="targetPoint" />
          </mxGeometry>
        </mxCell>
        <mxCell id="IgFrq9FfpR2oLdYjhYIg-14" value="Press Login Button&lt;br&gt;" style="text;html=1;align=center;verticalAlign=middle;resizable=0;points=[];autosize=1;" parent="1" vertex="1">
          <mxGeometry x="142" y="219" width="120" height="20" as="geometry" />
        </mxCell>
        <mxCell id="IgFrq9FfpR2oLdYjhYIg-17" value="alt" style="shape=umlFrame;whiteSpace=wrap;html=1;" parent="1" vertex="1">
          <mxGeometry x="82" y="320" width="616" height="310" as="geometry" />
        </mxCell>
        <mxCell id="IgFrq9FfpR2oLdYjhYIg-18" value="correct email and password" style="text;html=1;align=center;verticalAlign=middle;resizable=0;points=[];autosize=1;" parent="1" vertex="1">
          <mxGeometry x="87" y="357" width="160" height="20" as="geometry" />
        </mxCell>
        <mxCell id="IgFrq9FfpR2oLdYjhYIg-22" value="" style="endArrow=block;endFill=1;endSize=6;html=1;" parent="1" edge="1">
          <mxGeometry width="100" relative="1" as="geometry">
            <mxPoint x="340" y="353" as="sourcePoint" />
            <mxPoint x="510" y="353" as="targetPoint" />
          </mxGeometry>
        </mxCell>
        <mxCell id="IgFrq9FfpR2oLdYjhYIg-23" value="send client&#39;s data" style="text;html=1;align=center;verticalAlign=middle;resizable=0;points=[];autosize=1;" parent="1" vertex="1">
          <mxGeometry x="382" y="332" width="110" height="20" as="geometry" />
        </mxCell>
        <mxCell id="IgFrq9FfpR2oLdYjhYIg-28" value="" style="endArrow=block;endFill=1;endSize=6;html=1;dashed=1;" parent="1" edge="1">
          <mxGeometry width="100" relative="1" as="geometry">
            <mxPoint x="510" y="480" as="sourcePoint" />
            <mxPoint x="81" y="480" as="targetPoint" />
            <Array as="points">
              <mxPoint x="355" y="480" />
            </Array>
          </mxGeometry>
        </mxCell>
        <mxCell id="IgFrq9FfpR2oLdYjhYIg-29" value="return view account page" style="text;html=1;align=center;verticalAlign=middle;resizable=0;points=[];autosize=1;" parent="1" vertex="1">
          <mxGeometry x="190" y="460" width="150" height="20" as="geometry" />
        </mxCell>
        <mxCell id="IgFrq9FfpR2oLdYjhYIg-36" value="" style="endArrow=none;html=1;exitX=0;exitY=0.661;exitDx=0;exitDy=0;exitPerimeter=0;entryX=1;entryY=0.661;entryDx=0;entryDy=0;entryPerimeter=0;" parent="1" source="IgFrq9FfpR2oLdYjhYIg-17" target="IgFrq9FfpR2oLdYjhYIg-17" edge="1">
          <mxGeometry width="50" height="50" relative="1" as="geometry">
            <mxPoint x="160" y="590" as="sourcePoint" />
            <mxPoint x="700" y="525" as="targetPoint" />
          </mxGeometry>
        </mxCell>
        <mxCell id="IgFrq9FfpR2oLdYjhYIg-37" value="incorrect email and password" style="text;html=1;align=center;verticalAlign=middle;resizable=0;points=[];autosize=1;" parent="1" vertex="1">
          <mxGeometry x="90" y="532" width="170" height="20" as="geometry" />
        </mxCell>
        <mxCell id="IgFrq9FfpR2oLdYjhYIg-38" value="" style="html=1;points=[];perimeter=orthogonalPerimeter;" parent="1" vertex="1">
          <mxGeometry x="333" y="542" width="10" height="80" as="geometry" />
        </mxCell>
        <mxCell id="IgFrq9FfpR2oLdYjhYIg-40" value="show&amp;nbsp; an alert message: invalid data" style="text;html=1;align=center;verticalAlign=middle;resizable=0;points=[];autosize=1;" parent="1" vertex="1">
          <mxGeometry x="95" y="562" width="220" height="30" as="geometry" />
        </mxCell>
        <mxCell id="IgFrq9FfpR2oLdYjhYIg-47" value="Verify credentials&amp;nbsp;" style="text;html=1;align=center;verticalAlign=middle;resizable=0;points=[];autosize=1;" parent="1" vertex="1">
          <mxGeometry x="394" y="258" width="110" height="20" as="geometry" />
        </mxCell>
        <mxCell id="IgFrq9FfpR2oLdYjhYIg-60" value="return data of the&lt;br&gt;&amp;nbsp;client&#39;s&amp;nbsp;" style="text;html=1;align=center;verticalAlign=middle;resizable=0;points=[];autosize=1;" parent="1" vertex="1">
          <mxGeometry x="575" y="367" width="110" height="40" as="geometry" />
        </mxCell>
        <mxCell id="IgFrq9FfpR2oLdYjhYIg-61" value="return all client&#39;s&lt;br&gt;&amp;nbsp;account numbers" style="text;html=1;align=center;verticalAlign=middle;resizable=0;points=[];autosize=1;" parent="1" vertex="1">
          <mxGeometry x="577" y="424" width="110" height="30" as="geometry" />
        </mxCell>
        <mxCell id="fi9knDPnngR9Sk_oVO4m-3" value="Register page" style="shape=umlLifeline;perimeter=lifelinePerimeter;whiteSpace=wrap;html=1;container=1;collapsible=0;recursiveResize=0;outlineConnect=0;" vertex="1" parent="1">
          <mxGeometry x="661" y="53" width="130" height="885" as="geometry" />
        </mxCell>
        <mxCell id="fi9knDPnngR9Sk_oVO4m-4" value="" style="html=1;points=[];perimeter=orthogonalPerimeter;" vertex="1" parent="fi9knDPnngR9Sk_oVO4m-3">
          <mxGeometry x="60" y="604" width="10" height="260" as="geometry" />
        </mxCell>
        <mxCell id="fi9knDPnngR9Sk_oVO4m-5" value="alt" style="shape=umlFrame;whiteSpace=wrap;html=1;" vertex="1" parent="1">
          <mxGeometry x="79" y="660" width="716" height="153" as="geometry" />
        </mxCell>
        <mxCell id="fi9knDPnngR9Sk_oVO4m-6" value="" style="endArrow=classic;html=1;rounded=0;exitX=0;exitY=0.4;exitDx=0;exitDy=0;exitPerimeter=0;entryX=0.2;entryY=0.375;entryDx=0;entryDy=0;entryPerimeter=0;" edge="1" parent="1" source="fi9knDPnngR9Sk_oVO4m-5" target="fi9knDPnngR9Sk_oVO4m-7">
          <mxGeometry width="50" height="50" relative="1" as="geometry">
            <mxPoint x="80" y="727" as="sourcePoint" />
            <mxPoint x="370" y="720" as="targetPoint" />
          </mxGeometry>
        </mxCell>
        <mxCell id="fi9knDPnngR9Sk_oVO4m-7" value="" style="html=1;points=[];perimeter=orthogonalPerimeter;" vertex="1" parent="1">
          <mxGeometry x="333" y="690" width="10" height="80" as="geometry" />
        </mxCell>
        <mxCell id="fi9knDPnngR9Sk_oVO4m-8" value="or you dont have account , click in register&amp;nbsp;" style="text;html=1;strokeColor=none;fillColor=none;align=center;verticalAlign=middle;whiteSpace=wrap;rounded=0;" vertex="1" parent="1">
          <mxGeometry x="87" y="690" width="240" height="30" as="geometry" />
        </mxCell>
        <mxCell id="fi9knDPnngR9Sk_oVO4m-9" value="" style="endArrow=classic;html=1;rounded=0;exitX=0.9;exitY=0.738;exitDx=0;exitDy=0;exitPerimeter=0;entryX=0.891;entryY=1.011;entryDx=0;entryDy=0;entryPerimeter=0;" edge="1" parent="1" source="fi9knDPnngR9Sk_oVO4m-7" target="fi9knDPnngR9Sk_oVO4m-10">
          <mxGeometry width="50" height="50" relative="1" as="geometry">
            <mxPoint x="570" y="800" as="sourcePoint" />
            <mxPoint x="620" y="750" as="targetPoint" />
          </mxGeometry>
        </mxCell>
        <mxCell id="fi9knDPnngR9Sk_oVO4m-10" value="Navigate to register page&amp;nbsp;" style="text;html=1;strokeColor=none;fillColor=none;align=center;verticalAlign=middle;whiteSpace=wrap;rounded=0;" vertex="1" parent="1">
          <mxGeometry x="376" y="706" width="388" height="43" as="geometry" />
        </mxCell>
        <mxCell id="fi9knDPnngR9Sk_oVO4m-20" value="" style="endArrow=block;endFill=1;endSize=6;html=1;dashed=1;entryX=0;entryY=0.862;entryDx=0;entryDy=0;entryPerimeter=0;" edge="1" parent="1" target="IgFrq9FfpR2oLdYjhYIg-17">
          <mxGeometry width="100" relative="1" as="geometry">
            <mxPoint x="332" y="587" as="sourcePoint" />
            <mxPoint x="68" y="579" as="targetPoint" />
            <Array as="points" />
          </mxGeometry>
        </mxCell>
        <mxCell id="fi9knDPnngR9Sk_oVO4m-26" value="" style="endArrow=classic;html=1;rounded=0;exitX=1;exitY=0.54;exitDx=0;exitDy=0;exitPerimeter=0;" edge="1" parent="1">
          <mxGeometry width="50" height="50" relative="1" as="geometry">
            <mxPoint x="521" y="423" as="sourcePoint" />
            <mxPoint x="515" y="453" as="targetPoint" />
            <Array as="points">
              <mxPoint x="569" y="423" />
              <mxPoint x="569" y="453" />
              <mxPoint x="546" y="453" />
            </Array>
          </mxGeometry>
        </mxCell>
        <mxCell id="fi9knDPnngR9Sk_oVO4m-29" value="" style="endArrow=classic;html=1;rounded=0;exitX=1;exitY=0.54;exitDx=0;exitDy=0;exitPerimeter=0;" edge="1" parent="1">
          <mxGeometry width="50" height="50" relative="1" as="geometry">
            <mxPoint x="521" y="370" as="sourcePoint" />
            <mxPoint x="515" y="400" as="targetPoint" />
            <Array as="points">
              <mxPoint x="569" y="370" />
              <mxPoint x="569" y="400" />
              <mxPoint x="546" y="400" />
            </Array>
          </mxGeometry>
        </mxCell>
      </root>
    </mxGraphModel>
  </diagram>
</mxfile>
